if (_typeface_js && _typeface_js.loadFace) _typeface_js.loadFace({"glyphs":{"S":{"x_min":0,"x_max":639,"ha":725,"o":"m 639 320 q 635 272 639 295 q 625 224 632 248 q 580 134 609 176 q 511 63 551 93 q 422 16 470 33 q 319 0 373 0 q 195 24 252 0 q 93 93 137 49 q 25 195 50 137 q 0 320 0 253 l 233 320 q 258 258 233 284 q 319 233 283 233 q 371 250 348 233 q 402 294 393 267 q 406 319 406 305 q 380 377 406 355 q 319 400 355 400 q 195 424 253 400 q 93 490 137 448 q 25 590 50 533 q 0 713 0 647 q 3 760 0 737 q 13 808 6 784 q 58 898 29 856 q 127 969 87 940 q 216 1016 168 999 q 319 1033 265 1033 q 443 1008 386 1033 q 545 939 501 983 q 613 837 588 895 q 639 713 639 779 l 406 713 q 380 775 406 750 q 319 800 355 800 q 267 782 290 800 q 237 738 245 765 q 233 713 233 729 q 258 655 233 677 q 319 633 283 633 q 443 608 385 633 q 545 542 501 584 q 613 442 588 499 q 639 320 639 385 "},"K":{"x_min":0,"x_max":731.640625,"ha":779,"o":"m 731 1033 l 291 515 l 730 0 l 496 0 l 233 292 l 233 0 l 0 0 l 0 1033 l 233 1033 l 233 737 l 498 1033 l 731 1033 l 731 1033 "},"7":{"x_min":-6.9375,"x_max":658.390625,"ha":722,"o":"m 562 1033 l 658 1033 l 658 799 l 226 0 l -6 0 l 423 800 l 1 800 l 1 1033 l 548 1033 l 548 1033 l 562 1033 l 562 1033 l 562 1033 "},"d":{"x_min":0,"x_max":730.609375,"ha":807,"o":"m 730 516 q 691 318 730 412 q 577 149 652 224 q 421 43 508 81 q 238 0 334 5 l 208 0 l 0 0 l 0 1033 l 208 1033 q 407 994 312 1033 q 577 883 502 956 q 691 714 652 808 q 730 516 730 620 "},",":{"x_min":1,"x_max":233,"ha":324,"o":"m 1 233 l 233 233 l 233 0 l 159 -129 l 16 -129 l 89 0 l 1 0 l 1 233 l 1 233 "},"Y":{"x_min":-9.1875,"x_max":780.8125,"ha":833,"o":"m 780 1033 l 503 516 l 503 0 l 270 0 l 270 516 l -9 1033 l 224 1033 l 386 733 l 547 1033 l 780 1033 l 780 1033 "},"E":{"x_min":0,"x_max":633.03125,"ha":725,"o":"m 633 800 l 233 800 l 233 633 l 527 633 l 527 400 l 233 400 l 233 233 l 633 233 l 633 0 l 0 0 l 0 1033 l 633 1033 l 633 800 l 633 800 "},"y":{"x_min":-9.1875,"x_max":780.8125,"ha":833,"o":"m 780 1033 l 503 516 l 503 0 l 270 0 l 270 516 l -9 1033 l 224 1033 l 386 733 l 547 1033 l 780 1033 l 780 1033 "},"g":{"x_min":-11,"x_max":790.359375,"ha":903,"o":"m 790 415 q 790 401 790 408 q 789 387 790 394 l 789 0 l 573 0 l 573 53 q 485 13 532 28 q 390 -1 438 -1 l 388 -1 q 234 30 307 -1 q 104 122 161 62 q 20 253 50 180 q -11 407 -9 326 l -11 620 q 18 777 -11 704 q 104 909 48 851 q 234 1001 161 969 q 388 1033 307 1033 l 390 1033 q 543 1001 470 1033 q 675 909 616 969 q 760 774 730 849 q 790 616 790 700 l 557 616 q 543 687 557 654 q 507 745 530 720 q 454 785 484 770 q 388 800 423 800 q 324 785 354 800 q 271 745 294 770 q 235 687 248 720 q 222 616 222 654 l 222 415 q 235 344 222 377 q 271 286 248 311 q 324 246 294 261 q 388 232 353 232 q 461 250 429 232 q 517 299 494 268 l 387 299 l 387 514 l 790 514 l 790 415 "},"e":{"x_min":0,"x_max":633.03125,"ha":725,"o":"m 633 800 l 233 800 l 233 633 l 527 633 l 527 400 l 233 400 l 233 233 l 633 233 l 633 0 l 0 0 l 0 1033 l 633 1033 l 633 800 l 633 800 "},"J":{"x_min":0.015625,"x_max":640,"ha":736,"o":"m 640 315 q 612 192 638 249 q 544 92 587 134 q 443 24 501 49 q 319 0 384 0 q 195 24 252 0 q 93 93 137 49 q 25 195 50 137 q 0 320 0 253 l 233 320 q 258 258 233 284 q 319 233 283 233 q 381 258 355 233 q 407 320 407 284 l 407 1033 l 640 1033 l 640 315 "},"q":{"x_min":0,"x_max":890.34375,"ha":888,"o":"m 608 58 q 401 -1 512 -1 l 400 -1 q 245 30 318 -1 q 115 122 172 62 q 29 254 59 180 q 0 411 0 327 l 0 652 q 35 791 5 726 q 115 909 65 856 q 245 1001 172 969 q 400 1033 318 1033 l 401 1033 q 554 1001 481 1033 q 686 909 627 969 q 764 791 734 856 q 801 652 794 726 l 801 622 l 801 494 l 801 410 q 762 237 798 316 l 890 0 l 640 0 l 608 58 "},"b":{"x_min":0,"x_max":597.265625,"ha":688,"o":"m 450 515 q 556 416 516 480 q 597 272 597 351 q 575 165 597 215 q 517 78 554 115 q 430 20 480 42 q 323 -1 380 -1 l 316 -1 l 0 -1 l 0 1032 l 316 1032 l 323 1032 q 430 1010 380 1032 q 517 952 480 988 q 575 865 554 915 q 597 758 597 815 q 556 614 597 679 q 450 515 516 550 "},"D":{"x_min":0,"x_max":730.609375,"ha":807,"o":"m 730 516 q 691 318 730 412 q 577 149 652 224 q 421 43 508 81 q 238 0 334 5 l 208 0 l 0 0 l 0 1033 l 208 1033 q 407 994 312 1033 q 577 883 502 956 q 691 714 652 808 q 730 516 730 620 "},"z":{"x_min":0,"x_max":673.671875,"ha":771,"o":"m 673 1033 l 673 799 l 270 233 l 673 233 l 673 0 l 0 0 l 0 233 l 401 800 l 0 800 l 0 1033 l 673 1033 l 673 1033 "},"w":{"x_min":2.78125,"x_max":1252.875,"ha":1338,"o":"m 1019 1033 l 1252 1033 l 1001 0 l 763 0 l 627 560 l 491 0 l 254 0 l 2 1033 l 236 1033 l 373 472 l 509 1033 l 747 1033 l 883 472 l 1019 1033 l 1019 1033 "},"$":{"x_min":1,"x_max":557,"ha":631,"o":"m 279 642 q 386 619 336 642 q 475 560 437 597 q 534 471 512 522 q 557 364 557 421 q 516 218 557 283 q 409 118 476 154 l 409 0 l 176 0 l 176 105 q 105 146 137 120 q 50 206 73 172 q 14 280 27 240 q 1 364 1 321 l 232 364 q 245 330 232 344 q 279 316 259 316 q 312 330 298 316 q 326 364 326 344 q 314 394 326 382 q 287 410 303 407 l 278 410 q 171 432 221 410 q 82 491 120 454 q 23 579 45 529 q 1 687 1 630 q 49 845 1 776 q 176 947 98 915 l 176 1040 l 409 1040 l 409 934 q 516 833 476 898 q 557 687 557 768 l 326 687 q 312 721 326 707 q 279 736 298 736 q 245 721 259 736 q 232 687 232 707 q 243 657 232 671 q 270 642 254 644 l 279 642 l 279 642 "},"-":{"x_min":0,"x_max":718.109375,"ha":814,"o":"m 718 418 l 0 418 l 0 651 l 718 651 l 718 418 l 718 418 "},"Q":{"x_min":0,"x_max":890.34375,"ha":888,"o":"m 608 58 q 401 -1 512 -1 l 400 -1 q 245 30 318 -1 q 115 122 172 62 q 29 254 59 180 q 0 411 0 327 l 0 652 q 35 791 5 726 q 115 909 65 856 q 245 1001 172 969 q 400 1033 318 1033 l 401 1033 q 554 1001 481 1033 q 686 909 627 969 q 764 791 734 856 q 801 652 794 726 l 801 622 l 801 494 l 801 410 q 762 237 798 316 l 890 0 l 640 0 l 608 58 "},"M":{"x_min":1,"x_max":957,"ha":1057,"o":"m 957 1033 l 957 1033 l 957 0 l 724 0 l 724 361 l 597 0 l 363 0 l 234 372 l 234 0 l 1 0 l 1 1033 l 238 1033 l 480 336 l 724 1033 l 724 1033 l 957 1033 l 957 1033 "},"C":{"x_min":-15,"x_max":786,"ha":865,"o":"m 386 232 q 450 246 420 232 q 503 286 480 261 q 539 344 526 311 q 553 415 553 377 l 786 415 q 756 257 786 332 q 670 122 727 182 q 540 30 613 62 q 386 -1 468 -1 l 384 -1 q 230 30 302 -1 q 100 122 158 62 q 16 253 46 180 q -15 407 -13 326 l -15 620 q 15 777 -13 704 q 100 909 44 851 q 230 1001 158 969 q 384 1033 302 1033 l 386 1033 q 540 1001 468 1033 q 670 909 613 969 q 756 774 727 849 q 786 616 786 700 l 553 616 q 539 687 553 654 q 503 745 526 720 q 450 785 480 770 q 386 800 420 800 q 320 785 351 800 q 267 745 290 770 q 231 687 244 720 q 218 616 218 654 l 218 415 q 231 344 218 377 q 267 286 244 311 q 320 246 290 261 q 386 232 351 232 "},"L":{"x_min":0,"x_max":509.40625,"ha":599,"o":"m 233 233 l 509 233 l 509 0 l 0 0 l 0 1033 l 233 1033 l 233 233 l 233 233 "},"!":{"x_min":4,"x_max":237,"ha":326,"o":"m 237 0 l 5 0 l 5 233 l 237 233 l 237 0 l 237 0 m 237 1033 l 237 314 l 4 314 l 4 1033 l 237 1033 l 237 1033 "}," ":{"x_min":0,"x_max":0,"ha":695},"X":{"x_min":2.78125,"x_max":791.734375,"ha":876,"o":"m 791 1033 l 513 516 l 791 0 l 558 0 l 397 299 l 236 0 l 2 0 l 280 516 l 2 1033 l 236 1033 l 397 733 l 558 1033 l 791 1033 l 791 1033 "},"P":{"x_min":0,"x_max":635.796875,"ha":690,"o":"m 314 1033 q 439 1008 381 1033 q 542 939 498 983 q 610 837 585 895 q 635 712 635 778 q 610 587 635 645 q 542 485 585 529 q 439 416 498 441 q 314 391 381 391 l 313 391 l 233 391 l 233 0 l 0 0 l 0 1033 l 313 1033 l 314 1033 l 314 1033 "},"%":{"x_min":1.390625,"x_max":990.359375,"ha":1051,"o":"m 901 1033 l 294 0 l 61 0 l 668 1033 l 901 1033 m 336 695 q 322 630 336 661 q 286 577 309 600 q 234 541 263 554 q 169 527 204 527 q 104 541 134 527 q 50 577 73 554 q 14 630 27 600 q 1 695 1 661 q 14 761 1 730 q 50 814 27 791 q 104 850 73 837 q 169 863 134 863 q 234 850 204 863 q 286 814 263 837 q 322 761 309 791 q 336 695 336 730 m 990 356 q 977 291 990 322 q 941 238 963 261 q 887 202 918 215 q 822 188 857 188 q 757 202 787 188 q 703 238 726 215 q 667 291 680 261 q 654 356 654 322 q 667 421 654 391 q 703 474 680 451 q 757 510 726 497 q 822 523 787 523 q 887 510 857 523 q 941 474 918 497 q 977 421 963 451 q 990 356 990 391 "},"+":{"x_min":-0.078125,"x_max":719.078125,"ha":817,"o":"m 719 650 l 719 417 l 476 417 l 476 174 l 243 174 l 243 417 l 0 417 l 0 650 l 243 650 l 243 892 l 476 892 l 476 650 l 719 650 l 719 650 "},"'":{"x_min":-1,"x_max":231,"ha":329,"o":"m -1 1033 l 231 1033 l 231 799 l 157 671 l 15 671 l 89 799 l -1 799 l -1 1033 l -1 1033 "},"T":{"x_min":-12.734375,"x_max":689.734375,"ha":765,"o":"m 689 1033 l 689 800 l 455 800 l 455 0 l 222 0 l 222 800 l -12 800 l -12 1033 l 689 1033 l 689 1033 "},"a":{"x_min":-40.28125,"x_max":932.015625,"ha":1003,"o":"m 680 0 l 541 400 l 350 400 l 211 0 l -40 0 l 318 1033 l 573 1033 l 932 0 l 680 0 l 680 0 "},"=":{"x_min":0,"x_max":718.109375,"ha":831,"o":"m 718 670 l 0 670 l 0 903 l 718 903 l 718 670 l 718 670 m 718 186 l 0 186 l 0 419 l 718 419 l 718 186 l 718 186 "},"N":{"x_min":1,"x_max":763,"ha":839,"o":"m 530 1033 l 763 1033 l 763 0 l 527 0 l 234 577 l 234 0 l 1 0 l 1 1033 l 238 1033 l 530 456 l 530 1033 l 530 1033 "},"":{"x_min":0,"x_max":0,"ha":695},"2":{"x_min":-9.71875,"x_max":629.21875,"ha":710,"o":"m 305 233 l 626 233 l 626 0 l 5 0 l 5 233 l 383 669 q 395 713 395 688 q 393 738 395 725 q 361 782 384 765 q 309 800 338 800 q 248 775 273 800 q 223 713 223 750 l -9 713 q 15 837 -9 779 q 84 939 40 895 q 186 1008 127 983 q 309 1033 244 1033 q 412 1016 363 1033 q 501 969 461 999 q 570 898 541 939 q 615 808 600 856 q 629 713 629 764 q 604 592 629 646 q 536 491 580 538 l 305 233 "},"j":{"x_min":0.015625,"x_max":640,"ha":736,"o":"m 640 315 q 612 192 638 249 q 544 92 587 134 q 443 24 501 49 q 319 0 384 0 q 195 24 252 0 q 93 93 137 49 q 25 195 50 137 q 0 320 0 253 l 233 320 q 258 258 233 284 q 319 233 283 233 q 381 258 355 233 q 407 320 407 284 l 407 1033 l 640 1033 l 640 315 "},"Z":{"x_min":0,"x_max":673.671875,"ha":771,"o":"m 673 1033 l 673 799 l 270 233 l 673 233 l 673 0 l 0 0 l 0 233 l 401 800 l 0 800 l 0 1033 l 673 1033 l 673 1033 "},"u":{"x_min":1,"x_max":803,"ha":885,"o":"m 803 412 q 772 257 801 330 q 687 125 743 183 q 557 31 630 63 q 402 0 484 0 l 401 0 q 247 31 320 0 q 116 125 174 63 q 32 257 62 183 q 1 412 2 330 l 1 1035 l 234 1035 l 234 416 q 247 345 234 378 q 283 287 260 312 q 337 247 306 262 q 402 233 367 233 q 467 247 437 233 q 520 287 497 262 q 556 345 543 312 q 570 416 570 378 l 570 1035 l 803 1035 l 803 412 "},"1":{"x_min":-62.78125,"x_max":373,"ha":455,"o":"m 140 1033 l 373 1033 l 373 0 l 140 0 l 140 694 l 102 655 l -62 820 l 140 1033 l 140 1033 l 140 1033 l 140 1033 l 140 1033 l 140 1033 "},"k":{"x_min":0,"x_max":731.640625,"ha":779,"o":"m 731 1033 l 291 515 l 730 0 l 496 0 l 233 292 l 233 0 l 0 0 l 0 1033 l 233 1033 l 233 737 l 498 1033 l 731 1033 l 731 1033 "},"t":{"x_min":-12.734375,"x_max":689.734375,"ha":765,"o":"m 689 1033 l 689 800 l 455 800 l 455 0 l 222 0 l 222 800 l -12 800 l -12 1033 l 689 1033 l 689 1033 "},"W":{"x_min":2.78125,"x_max":1252.875,"ha":1338,"o":"m 1019 1033 l 1252 1033 l 1001 0 l 763 0 l 627 560 l 491 0 l 254 0 l 2 1033 l 236 1033 l 373 472 l 509 1033 l 747 1033 l 883 472 l 1019 1033 l 1019 1033 "},"v":{"x_min":6.9375,"x_max":962.578125,"ha":1003,"o":"m 729 1033 l 962 1033 l 602 0 l 366 0 l 6 1033 l 240 1033 l 484 330 l 729 1033 l 729 1033 "},"s":{"x_min":0,"x_max":639,"ha":725,"o":"m 639 320 q 635 272 639 295 q 625 224 632 248 q 580 134 609 176 q 511 63 551 93 q 422 16 470 33 q 319 0 373 0 q 195 24 252 0 q 93 93 137 49 q 25 195 50 137 q 0 320 0 253 l 233 320 q 258 258 233 284 q 319 233 283 233 q 371 250 348 233 q 402 294 393 267 q 406 319 406 305 q 380 377 406 355 q 319 400 355 400 q 195 424 253 400 q 93 490 137 448 q 25 590 50 533 q 0 713 0 647 q 3 760 0 737 q 13 808 6 784 q 58 898 29 856 q 127 969 87 940 q 216 1016 168 999 q 319 1033 265 1033 q 443 1008 386 1033 q 545 939 501 983 q 613 837 588 895 q 639 713 639 779 l 406 713 q 380 775 406 750 q 319 800 355 800 q 267 782 290 800 q 237 738 245 765 q 233 713 233 729 q 258 655 233 677 q 319 633 283 633 q 443 608 385 633 q 545 542 501 584 q 613 442 588 499 q 639 320 639 385 "},"B":{"x_min":0,"x_max":597.265625,"ha":688,"o":"m 450 515 q 556 416 516 480 q 597 272 597 351 q 575 165 597 215 q 517 78 554 115 q 430 20 480 42 q 323 -1 380 -1 l 316 -1 l 0 -1 l 0 1032 l 316 1032 l 323 1032 q 430 1010 380 1032 q 517 952 480 988 q 575 865 554 915 q 597 758 597 815 q 556 614 597 679 q 450 515 516 550 "},"?":{"x_min":-13.09375,"x_max":637,"ha":701,"o":"m 128 233 l 360 233 l 360 0 l 128 0 l 128 233 m 317 1032 q 441 1006 384 1032 q 543 936 499 980 q 611 835 586 893 q 637 711 637 777 q 616 602 637 648 q 565 520 595 555 q 498 459 534 484 q 430 415 462 434 q 394 393 412 402 q 367 370 375 384 q 361 355 363 363 q 359 338 360 347 q 359 319 357 329 l 128 319 l 128 361 q 146 451 128 412 q 191 520 164 490 q 249 571 218 549 q 308 609 281 593 q 354 640 335 627 q 384 665 373 654 q 400 688 395 677 q 405 711 405 698 q 379 773 405 747 q 317 800 353 800 q 246 773 275 800 q 217 711 217 747 l -13 711 q 13 835 -13 777 q 84 936 39 893 q 188 1006 128 980 q 316 1032 248 1032 l 317 1032 l 317 1032 "},"H":{"x_min":0,"x_max":743,"ha":853,"o":"m 510 1033 l 743 1033 l 743 0 l 510 0 l 510 400 l 233 400 l 233 0 l 0 0 l 0 1033 l 233 1033 l 233 633 l 510 633 l 510 1033 l 510 1033 "},"c":{"x_min":-15,"x_max":786,"ha":865,"o":"m 386 232 q 450 246 420 232 q 503 286 480 261 q 539 344 526 311 q 553 415 553 377 l 786 415 q 756 257 786 332 q 670 122 727 182 q 540 30 613 62 q 386 -1 468 -1 l 384 -1 q 230 30 302 -1 q 100 122 158 62 q 16 253 46 180 q -15 407 -13 326 l -15 620 q 15 777 -13 704 q 100 909 44 851 q 230 1001 158 969 q 384 1033 302 1033 l 386 1033 q 540 1001 468 1033 q 670 909 613 969 q 756 774 727 849 q 786 616 786 700 l 553 616 q 539 687 553 654 q 503 745 526 720 q 450 785 480 770 q 386 800 420 800 q 320 785 351 800 q 267 745 290 770 q 231 687 244 720 q 218 616 218 654 l 218 415 q 231 344 218 377 q 267 286 244 311 q 320 246 290 261 q 386 232 351 232 "},"&":{"x_min":0,"x_max":883.40625,"ha":974,"o":"m 748 266 l 876 137 l 733 -6 l 607 120 q 491 32 558 65 q 345 0 425 0 q 211 27 275 0 q 101 100 148 54 q 27 210 54 147 q 0 344 0 273 q 41 509 0 434 q 152 630 83 584 q 116 699 129 662 q 104 777 104 736 q 122 871 104 827 q 175 947 141 915 q 252 999 208 980 q 345 1018 295 1018 q 439 999 395 1018 q 516 947 483 980 q 567 871 548 915 q 586 777 586 827 q 549 649 586 706 q 452 562 512 591 l 609 403 l 745 538 l 883 399 l 748 266 "},"I":{"x_min":0,"x_max":233,"ha":332,"o":"m 233 1033 l 233 0 l 0 0 l 0 1033 l 233 1033 l 233 1033 "},"G":{"x_min":-11,"x_max":790.359375,"ha":903,"o":"m 790 415 q 790 401 790 408 q 789 387 790 394 l 789 0 l 573 0 l 573 53 q 485 13 532 28 q 390 -1 438 -1 l 388 -1 q 234 30 307 -1 q 104 122 161 62 q 20 253 50 180 q -11 407 -9 326 l -11 620 q 18 777 -11 704 q 104 909 48 851 q 234 1001 161 969 q 388 1033 307 1033 l 390 1033 q 543 1001 470 1033 q 675 909 616 969 q 760 774 730 849 q 790 616 790 700 l 557 616 q 543 687 557 654 q 507 745 530 720 q 454 785 484 770 q 388 800 423 800 q 324 785 354 800 q 271 745 294 770 q 235 687 248 720 q 222 616 222 654 l 222 415 q 235 344 222 377 q 271 286 248 311 q 324 246 294 261 q 388 232 353 232 q 461 250 429 232 q 517 299 494 268 l 387 299 l 387 514 l 790 514 l 790 415 "},"`":{"x_min":-1,"x_max":231,"ha":329,"o":"m -1 1033 l 231 1033 l 231 799 l 157 671 l 15 671 l 89 799 l -1 799 l -1 1033 l -1 1033 "},"U":{"x_min":1,"x_max":803,"ha":885,"o":"m 803 412 q 772 257 801 330 q 687 125 743 183 q 557 31 630 63 q 402 0 484 0 l 401 0 q 247 31 320 0 q 116 125 174 63 q 32 257 62 183 q 1 412 2 330 l 1 1035 l 234 1035 l 234 416 q 247 345 234 378 q 283 287 260 312 q 337 247 306 262 q 402 233 367 233 q 467 247 437 233 q 520 287 497 262 q 556 345 543 312 q 570 416 570 378 l 570 1035 l 803 1035 l 803 412 "},"F":{"x_min":2,"x_max":635.03125,"ha":725,"o":"m 635 800 l 235 800 l 235 633 l 529 633 l 529 400 l 235 400 l 235 0 l 2 0 l 2 1033 l 635 1033 l 635 800 l 635 800 "},"r":{"x_min":0,"x_max":656.640625,"ha":725,"o":"m 416 0 l 235 391 l 233 391 l 233 0 l 0 0 l 0 1033 l 313 1033 l 314 1033 q 440 1008 381 1033 q 543 939 499 983 q 612 837 587 895 q 637 712 637 778 q 588 542 637 617 q 460 426 539 466 l 656 0 l 416 0 "},":":{"x_min":0,"x_max":232,"ha":364,"o":"m 0 184 l 0 417 l 232 417 l 232 184 l 0 184 l 0 184 m 0 879 l 232 879 l 232 646 l 0 646 l 0 879 l 0 879 "},"x":{"x_min":2.78125,"x_max":791.734375,"ha":876,"o":"m 791 1033 l 513 516 l 791 0 l 558 0 l 397 299 l 236 0 l 2 0 l 280 516 l 2 1033 l 236 1033 l 397 733 l 558 1033 l 791 1033 l 791 1033 "},"*":{"x_min":-25.234375,"x_max":525.015625,"ha":607,"o":"m 525 849 l 387 812 l 484 715 l 377 607 l 249 734 l 120 604 l 12 710 l 113 812 l -25 849 l 13 997 l 172 955 l 172 1100 l 325 1100 l 325 954 l 486 997 l 525 849 l 525 849 "},"V":{"x_min":6.9375,"x_max":962.578125,"ha":1003,"o":"m 729 1033 l 962 1033 l 602 0 l 366 0 l 6 1033 l 240 1033 l 484 330 l 729 1033 l 729 1033 "}," ":{"x_min":0,"x_max":0,"ha":695},"\u001f":{"x_min":0,"x_max":0,"ha":695},"h":{"x_min":0,"x_max":743,"ha":853,"o":"m 510 1033 l 743 1033 l 743 0 l 510 0 l 510 400 l 233 400 l 233 0 l 0 0 l 0 1033 l 233 1033 l 233 633 l 510 633 l 510 1033 l 510 1033 "},"0":{"x_min":0,"x_max":637.546875,"ha":704,"o":"m 636 317 q 637 316 636 317 l 636 316 q 611 193 636 251 q 543 93 586 136 q 442 24 500 49 q 319 0 384 0 q 197 24 255 0 q 95 92 138 49 q 25 189 51 134 q 0 302 0 244 l 0 715 q 25 838 0 780 q 93 939 50 896 q 195 1008 137 983 q 319 1033 252 1033 q 442 1008 384 1033 q 543 939 500 983 q 611 838 586 896 q 636 715 636 780 l 636 713 l 637 713 l 636 713 q 636 696 636 705 q 637 680 637 687 l 637 351 q 636 336 637 344 q 636 319 636 327 l 636 317 l 636 317 "},".":{"x_min":0,"x_max":232,"ha":318,"o":"m 232 0 l 0 0 l 0 233 l 232 233 l 232 0 l 232 0 "},"@":{"x_min":1,"x_max":1032,"ha":1085,"o":"m 515 730 q 599 713 559 730 q 668 666 638 695 q 713 598 697 637 q 730 515 730 559 l 730 504 q 739 481 733 488 q 748 475 745 475 l 748 231 q 652 251 698 231 q 570 306 607 270 q 543 302 556 304 q 515 300 530 300 q 431 317 470 300 q 363 363 393 334 q 318 431 334 393 q 301 515 301 470 q 318 598 301 559 q 363 666 334 637 q 431 713 393 695 q 515 730 470 730 m 409 265 q 594 254 500 226 l 778 70 q 650 17 716 34 q 515 0 584 0 q 416 9 465 0 q 323 37 367 19 q 317 40 320 37 l 315 40 q 151 151 224 77 q 137 166 144 158 q 124 180 131 173 q 33 333 66 247 q 1 515 1 419 q 41 716 1 622 q 151 880 81 810 q 315 990 221 950 q 515 1031 409 1031 q 715 990 622 1031 q 879 880 809 950 q 991 716 950 810 q 1032 515 1032 622 l 788 515 q 766 622 788 572 q 708 708 744 671 q 621 766 671 744 q 515 788 572 788 q 409 766 459 788 q 322 708 359 744 q 264 621 286 671 q 243 515 243 572 q 287 366 243 432 q 402 268 331 300 q 405 266 404 266 q 407 266 406 266 q 409 265 408 265 m 1032 515 q 1009 404 1032 456 q 948 314 987 352 q 858 254 910 276 q 749 231 807 231 l 749 475 q 776 486 765 475 q 788 515 788 498 l 1032 515 "},";":{"x_min":0,"x_max":231,"ha":340,"o":"m 0 186 l 0 419 l 231 419 l 231 186 l 157 57 l 15 57 l 89 186 l 0 186 l 0 186 m 0 882 l 231 882 l 231 649 l 0 649 l 0 882 l 0 882 "},"f":{"x_min":2,"x_max":635.03125,"ha":725,"o":"m 635 800 l 235 800 l 235 633 l 529 633 l 529 400 l 235 400 l 235 0 l 2 0 l 2 1033 l 635 1033 l 635 800 l 635 800 "},"i":{"x_min":0,"x_max":233,"ha":332,"o":"m 233 1033 l 233 0 l 0 0 l 0 1033 l 233 1033 l 233 1033 "},"A":{"x_min":-40.28125,"x_max":932.015625,"ha":1003,"o":"m 680 0 l 541 400 l 350 400 l 211 0 l -40 0 l 318 1033 l 573 1033 l 932 0 l 680 0 l 680 0 "},"6":{"x_min":0,"x_max":639.96875,"ha":710,"o":"m 639 318 q 614 194 639 251 q 545 92 588 136 q 444 23 502 48 q 320 -1 385 -1 q 196 23 255 -1 q 95 89 138 47 q 25 188 51 132 q 0 308 0 244 l 0 733 q 26 848 0 794 q 96 945 52 903 q 198 1012 139 987 q 320 1037 256 1037 q 443 1012 385 1037 q 545 943 502 987 q 614 841 589 899 q 639 716 639 783 l 406 716 q 381 778 406 752 q 320 804 356 804 q 259 778 284 804 q 234 716 234 752 l 233 716 l 233 624 q 320 637 274 637 q 444 612 385 637 q 545 544 502 587 q 614 443 588 501 q 639 319 639 384 l 639 318 "},"n":{"x_min":1,"x_max":763,"ha":839,"o":"m 530 1033 l 763 1033 l 763 0 l 527 0 l 234 577 l 234 0 l 1 0 l 1 1033 l 238 1033 l 530 456 l 530 1033 l 530 1033 "},"O":{"x_min":-1.390625,"x_max":800.0625,"ha":888,"o":"m 800 411 q 769 255 798 329 q 684 123 740 182 q 554 30 627 62 q 400 -1 481 -1 l 398 -1 q 245 30 318 -1 q 113 122 172 62 q 29 254 59 180 q -1 411 0 327 l -1 652 q 35 791 5 726 q 113 909 65 856 q 244 1001 172 969 q 398 1033 316 1033 l 400 1033 q 554 1001 481 1033 q 684 909 627 969 q 763 791 734 856 q 800 652 793 726 l 800 622 l 800 494 l 800 411 l 800 411 "},"3":{"x_min":0,"x_max":639,"ha":700,"o":"m 639 320 q 625 224 639 267 q 580 134 609 176 q 511 63 551 93 q 422 16 470 33 q 319 0 373 0 q 195 24 252 0 q 93 93 137 49 q 25 195 50 137 q 0 320 0 253 l 233 320 q 258 258 233 284 q 319 233 283 233 q 371 250 348 233 q 402 294 393 267 q 406 319 406 305 q 380 377 406 355 q 319 400 355 400 l 172 400 l 172 633 l 319 633 q 380 655 355 633 q 406 713 406 677 q 402 738 406 729 q 371 782 393 765 q 319 800 348 800 q 258 775 283 800 q 233 713 233 750 l 0 713 q 25 837 0 779 q 93 939 50 895 q 195 1008 137 983 q 319 1033 252 1033 q 422 1016 373 1033 q 511 969 470 999 q 580 898 551 939 q 625 808 609 856 q 639 713 639 765 q 620 606 639 656 q 568 516 601 556 q 620 426 601 476 q 639 320 639 377 "},"m":{"x_min":1,"x_max":957,"ha":1057,"o":"m 957 1033 l 957 1033 l 957 0 l 724 0 l 724 361 l 597 0 l 363 0 l 234 372 l 234 0 l 1 0 l 1 1033 l 238 1033 l 480 336 l 724 1033 l 724 1033 l 957 1033 l 957 1033 "},"9":{"x_min":1.40625,"x_max":640,"ha":709,"o":"m 1 718 q 26 842 1 785 q 95 944 51 900 q 196 1013 138 988 q 320 1038 254 1038 q 443 1013 386 1038 q 545 947 501 989 q 614 848 588 904 q 640 728 640 792 l 640 303 q 614 187 640 243 q 545 90 588 132 q 443 24 501 49 q 320 -1 384 -1 q 196 23 254 -1 q 95 92 138 48 q 26 194 51 136 q 1 319 1 252 l 234 319 q 259 257 234 283 q 320 232 284 232 q 381 257 356 232 q 407 319 407 283 l 407 411 q 320 399 365 399 q 196 424 254 399 q 95 492 138 449 q 26 593 51 535 q 1 717 1 651 l 1 718 "},"8":{"x_min":0,"x_max":638.9375,"ha":701,"o":"m 638 317 q 613 194 638 252 q 544 93 587 136 q 443 24 501 49 q 319 0 384 0 q 195 24 254 0 q 94 93 137 49 q 25 194 51 136 q 0 317 0 252 l 0 319 q 19 426 0 377 q 72 516 38 476 q 19 606 38 556 q 0 713 0 655 l 0 715 q 25 838 0 780 q 94 939 51 896 q 195 1008 137 983 q 319 1033 254 1033 q 443 1008 384 1033 q 544 939 501 983 q 613 838 587 896 q 638 715 638 780 l 638 713 q 619 606 638 655 q 566 516 600 556 q 619 426 600 476 q 638 319 638 377 l 638 317 "},"l":{"x_min":0,"x_max":509.40625,"ha":599,"o":"m 233 233 l 509 233 l 509 0 l 0 0 l 0 1033 l 233 1033 l 233 233 l 233 233 "},"p":{"x_min":0,"x_max":635.796875,"ha":690,"o":"m 314 1033 q 439 1008 381 1033 q 542 939 498 983 q 610 837 585 895 q 635 712 635 778 q 610 587 635 645 q 542 485 585 529 q 439 416 498 441 q 314 391 381 391 l 313 391 l 233 391 l 233 0 l 0 0 l 0 1033 l 313 1033 l 314 1033 l 314 1033 "},"4":{"x_min":-11.296875,"x_max":687.015625,"ha":750,"o":"m 687 633 l 687 400 l 562 400 l 562 0 l 329 0 l 329 400 l -11 400 l -11 633 l -11 633 l 329 1030 l 329 1033 l 562 1033 l 562 633 l 687 633 l 687 633 "},"R":{"x_min":0,"x_max":656.640625,"ha":725,"o":"m 416 0 l 235 391 l 233 391 l 233 0 l 0 0 l 0 1033 l 313 1033 l 314 1033 q 440 1008 381 1033 q 543 939 499 983 q 612 837 587 895 q 637 712 637 778 q 588 542 637 617 q 460 426 539 466 l 656 0 l 416 0 "},"o":{"x_min":-1.390625,"x_max":800.0625,"ha":888,"o":"m 800 411 q 769 255 798 329 q 684 123 740 182 q 554 30 627 62 q 400 -1 481 -1 l 398 -1 q 245 30 318 -1 q 113 122 172 62 q 29 254 59 180 q -1 411 0 327 l -1 652 q 35 791 5 726 q 113 909 65 856 q 244 1001 172 969 q 398 1033 316 1033 l 400 1033 q 554 1001 481 1033 q 684 909 627 969 q 763 791 734 856 q 800 652 793 726 l 800 622 l 800 494 l 800 411 l 800 411 "},"5":{"x_min":-1,"x_max":639,"ha":707,"o":"m 233 798 l 233 706 q 275 715 254 712 q 319 718 296 718 q 455 693 396 718 q 555 630 514 669 q 617 541 595 591 q 639 441 639 491 l 639 402 l 639 398 l 639 319 q 613 194 639 253 q 545 92 588 136 q 443 23 501 48 q 319 -1 384 -1 q 195 23 252 -1 q 93 92 137 48 q 25 194 50 136 q 0 319 0 252 l 233 319 q 258 257 233 283 q 319 232 283 232 q 383 257 355 232 q 411 319 411 283 l 411 398 q 386 458 411 432 q 319 485 362 485 q 258 459 283 485 q 233 398 233 434 l 0 398 l 0 797 l -1 797 l -1 1031 l 619 1031 l 619 798 l 233 798 "}}}
